<?xml version="1.0" encoding="UTF-8"?>
<!--
  ARENA — Icône ADMIN (Vector Strike F2)
  Source vectoriel scalable, à utiliser pour tous exports PNG.
  Inversion chromatique : neon-red #FF2D55 + signal-blue #4C7AFF
-->
<svg viewBox="0 0 1024 1024" xmlns="http://www.w3.org/2000/svg" width="1024" height="1024">
  <defs>
    <linearGradient id="bg-admin" x1="0" y1="0" x2="1" y2="1">
      <stop offset="0%" stop-color="#FF2D55"/>
      <stop offset="55%" stop-color="#5C1A2D"/>
      <stop offset="100%" stop-color="#0A0A0F"/>
    </linearGradient>
  </defs>

  <rect width="1024" height="1024" fill="url(#bg-admin)"/>

  <g fill="#FFFFFF" opacity="0.4">
    <circle cx="120" cy="340" r="9"/>
    <circle cx="95" cy="410" r="11"/>
    <circle cx="70" cy="480" r="13"/>
    <circle cx="95" cy="550" r="11"/>
    <circle cx="120" cy="620" r="9"/>
  </g>

  <polygon points="180,260 340,260 540,420 340,580 180,580 380,420" fill="#FFFFFF"/>
  <polygon points="340,260 480,260 680,420 480,580 340,580 540,420" fill="#4C7AFF"/>
  <polygon points="480,260 620,260 820,420 620,580 480,580 680,420" fill="#FFFFFF" opacity="0.55"/>

  <text x="512" y="780" text-anchor="middle"
        font-family="Bebas Neue, Impact, sans-serif"
        font-size="120"
        fill="#FFFFFF"
        letter-spacing="10"
        font-weight="700">ADMIN</text>
</svg>
